<svg width="41" height="42" fill="none" xmlns="http://www.w3.org/2000/svg"><path d="M37.145 10.249a13.69 13.69 0 01-3.93 1.056 6.809 6.809 0 003.001-3.762 13.474 13.474 0 01-4.33 1.65 6.808 6.808 0 00-4.988-2.158 6.823 6.823 0 00-6.824 6.828c0 .529.064 1.057.168 1.565A19.396 19.396 0 016.169 8.283a6.777 6.777 0 00-.929 3.447 6.83 6.83 0 003.042 5.687 6.884 6.884 0 01-3.086-.868v.084a6.827 6.827 0 005.472 6.7 7.22 7.22 0 01-1.797.232 9.07 9.07 0 01-1.29-.104 6.837 6.837 0 006.38 4.735 13.679 13.679 0 01-8.473 2.918c-.572 0-1.1-.02-1.649-.084a19.327 19.327 0 0010.483 3.062c12.552 0 19.42-10.398 19.42-19.424 0-.297 0-.593-.02-.889a14.703 14.703 0 003.423-3.53z" fill="#fff"/></svg>