<svg width="26" height="19" viewBox="0 0 41 19" fill="none" xmlns="http://www.w3.org/2000/svg"><path d="M31.775 0c-2.46 0-4.783.989-6.44 2.702L13.325 13.72a5.654 5.654 0 01-4.1 1.748c-3.195 0-5.808-2.666-5.808-5.968S6.03 3.532 9.225 3.532c1.555 0 3.007.618 4.168 1.818l1.93 1.766 2.614-2.366-2.186-1.96A9.16 9.16 0 0012.758.72 8.915 8.915 0 009.225 0C4.135 0 0 4.273 0 9.5S4.134 19 9.225 19c2.46 0 4.783-.989 6.44-2.702L27.675 5.28a5.654 5.654 0 014.1-1.748c3.195 0 5.808 2.666 5.808 5.968s-2.613 5.968-5.808 5.968c-1.537 0-3.007-.618-4.168-1.818l-1.982-1.784-2.563 2.366 2.187 1.978a9.185 9.185 0 002.996 2.058c1.12.476 2.32.719 3.53.714 5.09 0 9.225-4.255 9.225-9.482C41 4.203 36.866 0 31.775 0z" fill="#02E4C0"/></svg>