<svg width="29" height="30" fill="none" xmlns="http://www.w3.org/2000/svg"><path d="M12.05 13.395c1.478 2.46 1.261 5.355-.508 6.525-1.769 1.14-4.408.075-5.901-2.385-1.48-2.46-1.247-5.385.521-6.525 1.77-1.14 4.408-.075 5.888 2.385zm2.45 10.23c2.9 0 3.625-1.125 3.625-1.125s-.725 3-3.625 3-3.625-2.955-3.625-3c0 0 .725 1.125 3.625 1.125zm8.337-12.615c1.77 1.14 2.002 4.065.523 6.525-1.494 2.46-4.133 3.525-5.902 2.385-1.769-1.17-1.986-4.065-.507-6.525s4.117-3.525 5.886-2.385zM14.5 27c3.625 0 11.6-7.71 11.6-13.5S20.894 3 14.5 3C8.105 3 2.9 7.71 2.9 13.5S10.875 27 14.5 27zm0-27C22.475 0 29 6.06 29 13.5 29 19.62 20.764 30 14.5 30 8.236 30 0 19.62 0 13.5 0 6.06 6.525 0 14.5 0z" fill="#02E4C0"/></svg>